<?xml version="1.0" encoding="UTF-8" standalone="no"?>
<svg id="svg9125" xmlns:rdf="http://www.w3.org/1999/02/22-rdf-syntax-ns#" xmlns="http://www.w3.org/2000/svg" viewBox="0 0 1440 959.99994" height="270.93mm" width="406.4mm" version="1.1" xmlns:cc="http://creativecommons.org/ns#" xmlns:dc="http://purl.org/dc/elements/1.1/">
<defs id="defs9127">
<pattern id="pattern10344" width="480" patternUnits="userSpaceOnUse" patternTransform="translate(20 192.36)" height="480.00087">
<g id="g10079" transform="translate(-20 -192.36)">
<rect id="rect10009" height="480" width="480" y="192.36" x="20" fill="#d86d26"/>
<path id="rect9675" d="m20 192.36v40h80v-40h-80zm200 0v80h40v-80h-40zm160 40v40h-80v40h80v40h80v-40h-40v-80h-40zm-280 80v80h40v-80h-40zm160 40v40h-80v40h80v40h80v-40h-40v-80h-40zm200 80v80h40v-80h-40zm-320 40v40h-80v40h80v40h80v-40h-40v-80h-40zm200 80v80h40v-80h-40zm-320 40v80h40v-80h-40zm400 40v40h80v-40h-80z" fill="#b45b1f"/>
<path id="rect9677" d="m260 192.36v40h80v-40h-80zm200 0v80h40v-80h-40zm-320 40v40h-80v40h80v40h80v-40h-40v-80h-40zm200 80v80h40v-80h-40zm-320 40v80 40h80v-40h-40v-80h-40zm400 40v40h80v-40h-80zm-200 40v80h40v-80h-40zm160 40v40h-80v40h80v40h80v-40h-40v-80h-40zm-280 80v80h40v-80h-40zm160 40v40h-80v40h80 40v-80h-40z" fill="#6c3613"/>
<path id="rect9679" d="m100 192.36v80h40v-80h-40zm280 0v40h80v-40h-80zm-120 40v40h-80v40h80v40h80v-40h-40v-80h-40zm200 80v80h40v-80h-40zm-320 40v40h-80v40h80v40h80v-40h-40v-80h-40zm200 80v80h40v-80h-40zm-320 40v80 40h80v-40h-40v-80h-40zm400 40v40h80v-40h-80zm-200 40v80h40v-80h-40zm160 40v40h-80v40h80 40v-80h-40z" fill="#904919"/>
<path id="rect9681" d="m140 192.36v40h80v-40h-80zm200 0v80h40v-80h-40zm-320 40v80 40h80v-40h-40v-80h-40zm400 40v40h80v-40h-80zm-200 40v80h40v-80h-40zm160 40v40h-80v40h80v40h80v-40h-40v-80h-40zm-280 80v80h40v-80h-40zm160 40v40h-80v40h80v40h80v-40h-40v-80h-40zm200 80v80h40v-80h-40zm-320 40v40h-80v40h80 40v-80h-40z" fill="#48240c"/>
</g>
</pattern>
</defs>
<g id="layer1" transform="translate(-20 287.64)">
<rect id="rect10342" height="960" width="1440" y="-287.64" x="20" fill="url(#pattern10344)"/>
</g>
</svg>
