<?xml version='1.0' encoding='utf-8'?>
<svg xmlns="http://www.w3.org/2000/svg" id="Layer_1" data-name="Layer 1" width="800" height="800" viewBox="0 0 800 800"><defs><style>.cls-1{fill:#00ac00;}.cls-2{fill:#6dcc00;}.cls-3{fill:#56c321;}.cls-4{fill:#54c120;}.cls-5{fill:#50bd1a;}.cls-6{fill:#1cb400;}.cls-7{fill:#57c424;}</style></defs><title>grass-pattern</title><polygon class="cls-1" points="240.55 0 240.55 38.61 161.06 38.61 161.06 79.11 119.06 79.11 119.06 38.61 80.06 38.61 80.06 0 240.55 0"/><path class="cls-2" d="M320,320.59v39h40v-39Zm-37.5-162v42H320v-42Zm37.5,42v40.5h40V200.6Zm0,120v39h40v-39Zm-37.5-162v42H320v-42Zm37.5,42v40.5h40V200.6Zm0,120v39h40v-39Zm-37.5-162v42H320v-42Zm37.5,42v40.5h40V200.6Zm0,120v39h40v-39Zm-37.5-162v42H320v-42Zm37.5,42v40.5h40V200.6Zm120.45,159V400h81V359.59Zm-40.5-39v39h40.5v-39Zm-80,0v39h40v-39Zm-37.5-162v42H320v-42Zm37.5,42v40.5h40V200.6Zm120.45,159V400h81V359.59Zm-40.5-39v39h40.5v-39Zm-80,0v39h40v-39Zm-37.5-162v42H320v-42Zm37.5,42v40.5h40V200.6Zm120.45,159V400h81V359.59Zm-40.5-39v39h40.5v-39ZM161.06,562.08v40.5h39.5v-40.5Zm-42,40.5v39h42v-39Zm201-282v39h40v-39Zm-37.5-162v42H320v-42Zm37.5,42v40.5h40V200.6Zm120.45,159V400h81V359.59Zm-40.5-39v39h40.5v-39ZM161.06,562.08v40.5h39.5v-40.5Zm-42,40.5v39h42v-39Zm201-282v39h40v-39Zm-37.5-162v42H320v-42Zm37.5,42v40.5h40V200.6Zm120.45,159V400h81V359.59Zm-40.5-39v39h40.5v-39ZM161.06,562.08v40.5h39.5v-40.5Zm-42,40.5v39h42v-39Zm201-282v39h40v-39Zm-37.5-162v42H320v-42Zm37.5,42v40.5h40V200.6Zm0,321v40.5h40v-40.5Zm120.45-162V400h81V359.59Zm-40.5-39v39h40.5v-39ZM161.06,562.08v40.5h39.5v-40.5Zm-42,40.5v39h42v-39Zm163.49-444v42H320v-42Zm37.5,42v40.5h40V200.6Zm40-42v42h40v-42Zm0,82.5v79.49H320v39h80V241.1ZM320,521.58v40.5h40v-40.5Zm120.45-162V400h81V359.59Zm-40.5-39v39h40.5v-39ZM161.06,562.08v40.5h39.5v-40.5Zm-42,40.5v39h42v-39Zm163.49-444v42H320v-42Zm37.5,42v40.5h40V200.6Zm40-42v42h40v-42Zm0,82.5v79.49H320v39h80V241.1ZM320,521.58v40.5h40v-40.5Zm120.45-162V400h81V359.59Zm-40.5-39v39h40.5v-39ZM161.06,562.08v40.5h39.5v-40.5Zm-42,40.5v39h42v-39Zm163.49-444v42H320v-42Zm37.5,42v40.5h40V200.6Zm40-42v42h40v-42Zm0,82.5v79.49H320v39h80V241.1Zm0,199.49v39h40v-39Zm-40,81v40.5h40v-40.5Zm120.45-162V400h81V359.59Zm-40.5-39v39h40.5v-39ZM161.06,562.08v40.5h39.5v-40.5Zm-42,40.5v39h42v-39ZM240.55,400v40.59h42v39H320V400Zm42-241.4v42H320v-42Zm37.5,42v40.5h40V200.6Zm40-42v42h40v-42Zm0,82.5v79.49H320v39h80V241.1ZM440.5,359.59V400h81V359.59Zm-40.5-39v39h40.5v-39Zm-40,120v39h40v-39Zm-40,81v40.5h40v-40.5Zm-159,40.5v40.5h39.5v-40.5Zm-42,40.5v39h42v-39ZM240.55,400v40.59h42v39H320V400Zm42-241.4v42H320v-42Zm37.5,42v40.5h40V200.6Zm40-42v42h40v-42Zm0,82.5v79.49H320v39h80V241.1ZM440.5,359.59V400h81V359.59Zm-40.5-39v39h40.5v-39Zm-40,120v39h40v-39Zm-40,81v40.5h40v-40.5Zm-159,40.5v40.5h39.5v-40.5Zm-42,40.5v39h42v-39ZM240.55,400v40.59h42v39H320V400Zm42-241.4v42H320v-42Zm37.5,42v40.5h40V200.6Zm40-42v42h40v-42Zm0,82.5v79.49H320v39h80V241.1Zm0,199.49v39h40v-39Zm-40,81v40.5h40v-40.5Zm120.45-162V400h81V359.59Zm-40.5-39v39h40.5v-39Zm360.49,39V400H800V359.59ZM161.06,562.08v40.5h39.5v-40.5Zm-42,40.5v39h42v-39ZM240.55,400v40.59h42v39H320V400Zm42-241.4v42H320v-42Zm37.5,42v40.5h40V200.6Zm40-42v42h40v-42Zm0,82.5v79.49H320v39h80V241.1Zm0,199.49v39h40v-39Zm-40,81v40.5h40v-40.5Zm120.45-162V400h81V359.59Zm-40.5-39v39h40.5v-39Zm360.49-120v40.5H800V200.6ZM161.06,562.08v40.5h39.5v-40.5Zm-42,40.5v39h42v-39ZM240.55,400v40.59h42v39H320V400Zm42-241.4v42H320v-42Zm37.5,42v40.5h40V200.6Zm40-42v42h40v-42Zm0,82.5v79.49H320v39h80V241.1Zm0,199.49v39h40v-39Zm-40,81v40.5h40v-40.5Zm120.45-162V400h81V359.59Zm-40.5-39v39h40.5v-39ZM161.06,562.08v40.5h39.5v-40.5Zm-42,40.5v39h42v-39ZM240.55,400v40.59h42v39H320V400Zm42-241.4v42H320v-42Zm37.5,42v40.5h40V200.6Zm40-42v42h40v-42Zm0,82.5v79.49H320v39h80V241.1Zm0,199.49v39h40v-39Zm-40,81v40.5h40v-40.5Zm120.45-162V400h81V359.59Zm-40.5-39v39h40.5v-39Zm360.49,360v40.49H800V680.58ZM161.06,562.08v40.5h39.5v-40.5Zm-42,40.5v39h42v-39ZM240.55,400v40.59h42v39H320V400Zm42-241.4v42H320v-42Zm37.5,42v40.5h40V200.6Zm40-42v42h40v-42Zm0,82.5v79.49H320v39h80V241.1Zm0,199.49v39h40v-39Zm-40,81v40.5h40v-40.5Zm120.45-162V400h81V359.59Zm-40.5-39v39h40.5v-39Zm-40,120v39h40v-39Zm-40,81v40.5h40v-40.5Zm-37.5-81v39H320v-39ZM161.06,562.08v40.5h39.5v-40.5Zm-42,40.5v39h42v-39ZM240.55,400v40.59H320V400Zm42-241.4v42H320v-42Zm37.5,42v40.5h40V200.6Zm40-42v42h40v-42Zm0,82.5v79.49H320v39h80V241.1ZM440.5,359.59V400h81V359.59Zm-40.5-39v39h40.5v-39Zm-40,120v39h40v-39Zm-40,81v40.5h40v-40.5Zm-37.5-81v39H320v-39ZM161.06,562.08v40.5h39.5v-40.5Zm-42,40.5v39h42v-39ZM240.55,400v40.59H320V400Zm42-241.4v42H320v-42Zm37.5,42v40.5h40V200.6Zm40-42v42h40v-42Zm0,82.5v79.49H320v39h80V241.1ZM440.5,359.59V400h81V359.59Zm-40.5-39v39h40.5v-39Zm-40,120v39h40v-39Zm-40,81v40.5h40v-40.5Zm-37.5-81v39H320v-39ZM161.06,562.08v40.5h39.5v-40.5Zm-42,40.5v39h42v-39ZM240.55,400v40.59H320V400Zm42-241.4v42H320v-42Zm37.5,42v40.5h40V200.6Zm40-42v42h40v-42Zm0,82.5V359.59h40V241.1Zm-280,0v43.4h39V241.1ZM360,440.59v39h40v-39Zm-40,81v40.5h40v-40.5Zm-37.5-81v39H320v-39ZM161.06,562.08v40.5h39.5v-40.5Zm-42,40.5v39h42v-39Zm163.49-444v42H320v-42Zm37.5,42v40.5h40V200.6Zm40-42v42h40v-42Zm0,82.5V359.59h40V241.1Zm0,199.49v39h40v-39Zm-40,81v40.5h40v-40.5Zm-37.5-81v39H320v-39ZM161.06,562.08v40.5h39.5v-40.5Zm-42,40.5v39h42v-39Zm163.49-444v42H320v-42Zm37.5,42v40.5h40V200.6Zm40-42v42h40v-42Zm0,82.5V359.59h40V241.1Zm80.45-82.5v42h39v-42Zm-40.5-39v39h40.5v-39Zm40.5,39v42h39v-42Zm-40.5-39v39h40.5v-39Zm40.5,39v42h39v-42Zm-40.5-39v39h40.5v-39Zm40.5,39v42h39v-42Zm-40.5-39v39h40.5v-39Zm40.5,39v42h39v-42Zm-40.5-39v39h40.5v-39Zm40.5,39v42h39v-42Zm-40.5-39v39h40.5v-39Zm40.5,39v42h39v-42Zm-40.5-39v39h40.5v-39Zm40.5,39v42h39v-42Zm-40.5-39v39h40.5v-39Zm40.5,39v42h39v-42Zm-40.5-39v39h40.5v-39Zm40.5,39v42h39v-42Zm-40.5-39v39h40.5v-39Zm40.5,39v42h39v-42Zm-40.5-39v39h40.5v-39Zm40.5,39v42h39v-42Zm-40.5-39v39h40.5v-39Zm40.5,39v42h39v-42Zm-40.5-39v39h40.5v-39Zm40.5,39v42h39v-42Zm-40.5-39v39h40.5v-39Zm40.5,39v42h39v-42Zm-40.5-39v39h40.5v-39Zm40.5,39v42h39v-42Zm-40.5-39v39h40.5v-39Zm0,201v39h40.5v-39Zm0-201v39h40.5v-39Zm0,0v39h40.5v-39Zm0,0v39h40.5v-39Zm0,0v39h40.5v-39Zm0,0v39h40.5v-39Zm0,0v39h40.5v-39Zm0,0v39h40.5v-39Zm0,0v39h40.5v-39Zm0,0v39h40.5v-39Zm0,0v39h40.5v-39ZM479.5,0V38.61h42V0ZM400,158.6h40.5v-39H400Zm0-39v39h40.5v-39Zm0,0v39h40.5v-39Zm0,0v39h40.5v-39Zm0,0v39h40.5v-39Zm0,0v39h40.5v-39Zm0,0v39h40.5v-39Zm0,0v39h40.5v-39Zm0,0v39h40.5v-39Zm0,0v39h40.5v-39Zm0,0v39h40.5v-39Zm0,201v39h40.5v-39Zm40.5-162v42h39v-42Zm-40.5-39v39h40.5v-39Zm40.5,39v42h39v-42Zm-40.5-39v39h40.5v-39Zm40.5,39v42h39v-42Zm-40.5-39v39h40.5v-39Zm40.5,39v42h39v-42Zm-40.5-39v39h40.5v-39Zm40.5,39v42h39v-42Zm-40.5-39v39h40.5v-39Zm40.5,39v42h39v-42Zm-40.5-39v39h40.5v-39Zm40.5,39v42h39v-42Zm-40.5-39v39h40.5v-39Zm40.5,39v42h39v-42Zm-40.5-39v39h40.5v-39Zm40.5,39v42h39v-42Zm-40.5-39v39h40.5v-39Zm40.5,39v42h39v-42Zm-40.5-39v39h40.5v-39Zm40.5,39v42h39v-42Zm-40.5-39v39h40.5v-39Zm40.5,39v42h39v-42Zm-40.5-39v39h40.5v-39Zm40.5,39v42h39v-42Zm-40.5-39v39h40.5v-39Zm40.5,39v42h39v-42Zm-40.5-39v39h40.5v-39Zm40.5,39v42h39v-42Zm-40.5-39v39h40.5v-39Zm40.5,39v42h39v-42Zm-40.5-39v39h40.5v-39Zm-40,321v39h40v-39Zm-40,81v40.5h40v-40.5Zm-37.5-81v39H320v-39ZM161.06,562.08v40.5h39.5v-40.5Zm-42,40.5v39h42v-39Zm241-162v39h40v-39Zm-40,81v40.5h40v-40.5Zm-37.5-81v39H320v-39ZM161.06,562.08v40.5h39.5v-40.5Zm-42,40.5v39h42v-39ZM0,79.11V119.6H39.56V79.11ZM39.56,0V79.11h40.5V0Zm79.5,79.11V119.6h42V79.11ZM282.55,119.6v39h-82v42H320v-81Zm-121.49,0v39h39.5v-39Zm39.5-81v40.5h40V38.61ZM360,440.59v39h40v-39Zm-40,81v40.5h40v-40.5Zm-37.5-81v39H320v-39ZM561,158.6v42h40v-42Zm-39.5-120v81H601v-81ZM360,440.59v39h40v-39Zm-40,81v40.5h40v-40.5Zm-37.5-81v39H320v-39Zm397.94,240v-39H643V800h37.5V721.07h40V680.58ZM360,440.59v39h40v-39Zm-40,81v40.5h40v-40.5Zm-37.5-81v39H320v-39Zm0,0v39H320v-39Zm37.5,81v40.5h40v-40.5Zm80-201v39h40.5v-39Zm-117.45,120v39H320v-39Zm37.5,81v40.5h40v-40.5Zm80-201v39h40.5v-39Zm-80,201v40.5h40v-40.5Zm80-201v39h40.5v-39ZM643,562.08v40.5h37.5v-40.5ZM320,521.58v40.5h40v-40.5Zm80-201v39h40.5v-39Zm-80,201v40.5h40v-40.5Zm80-201v39h40.5v-39Zm0,0v39h40.5v-39Zm40.5,39V400h81V359.59Zm320-280.48V119.6H800V79.11ZM561,158.6v42h40v-42Zm0,0v42h40v-42Zm0,0v42h40v-42Zm0,0v42h40v-42Zm0,0v42h40v-42Zm0,0v42h40v-42Zm0,0v42h40v-42Zm0,0v42h40v-42Zm0,0v42h40v-42Zm0,0v42h40v-42Zm82,42v83.9H561v75.09h82v-39h37.5V241.1h40V200.6Zm0-81v39h37.5v-39Zm-82,39v42h40v-42Zm0,0v42h40v-42Zm0,0v42h40v-42Zm0,0v42h40v-42Zm0,0v42h40v-42ZM680.49,0V119.6h40V79.11h40V0ZM561,158.6v42h40v-42Zm0,0v42h40v-42Zm0,0v42h40v-42Zm0,0v42h40v-42Zm0,0v42h40v-42Zm199.5,125.9v36.09H800V284.5ZM320,521.58v40.5h40v-40.5Zm120.45-162V400h81V359.59ZM320,521.58v40.5h40v-40.5Zm80-201v39h40.5v-39Zm40.5,39V400h81V359.59ZM320,521.58v40.5h40v-40.5Zm80-201v39h40.5v-39Zm40.5,39V400h81V359.59ZM320,521.58v40.5h40v-40.5Zm-79.5,81v-40.5h-40v-40.5H80.06v40.5h81v40.5h-42v39h81.5v39h40v40.49h42V680.58H320v-78Zm-40,157.49V800h40V760.07Zm0-79.49h-81.5v-39h-39v-39H39.56v39H0v79.49H39.56V680.58h40.5v40.49h81v39h39.5Zm-161,79.49V800h121.5V760.07Zm320.49,0V680.58H320v40.49h-37.5V800H400V760.07Zm40-439.48v39h40.5v-39Zm40.5,39V400h81V359.59Zm-40.5-39v39h40.5v-39Zm40.5,39V400h81V359.59Zm0,0V400h81V359.59ZM400,400v40.59H360v39H440.5V400Zm40.5-40.41V400h81V359.59Zm0,0V400h81V359.59Zm0,0V400h81V359.59Zm0,0V400h81V359.59Zm0,0V400h81V359.59Zm39,282v-39h-39v-40.5H400v159h40.5V800h39V680.58h-39v-39Zm-39-282V400h81V359.59Zm39,162v40.5h42v-40.5Zm-39-162V400h81V359.59Zm0,0V400h81V359.59Zm0,0V400h81V359.59Zm0,0V400h81V359.59Zm202.49,0v81H601v81H561v40.5h-39.5v159H561V602.58h40v-40.5h42V479.59h37.5V400h40V359.59Zm-121.5,0h-81V400h81Zm-81,0V400h81V359.59Zm0,0V400h81V359.59Zm0,0V400h81V359.59Zm0,0V400h81V359.59Zm0,0V400h81V359.59Zm0,0V400h81V359.59Zm0,0V400h81V359.59Zm0,0V400h81V359.59Zm0,0V400h81V359.59Zm0,0V400h81V359.59Zm0,0V400h81V359.59Zm0,0V400h81V359.59Zm-40.5-39v39h40.5v-39Zm40.5,39V400h81V359.59Zm-40.5-39v39h40.5v-39Zm-80,201v40.5h40v-40.5Zm120.45-162V400h81V359.59Zm-40.5-39v39h40.5v-39Zm-80,201v40.5h40v-40.5Zm120.45-162V400h81V359.59Zm-40.5-39v39h40.5v-39Zm-80,201v40.5h40v-40.5Zm80-201v39h40.5v-39Zm-80,201v40.5h40v-40.5Zm80-201v39h40.5v-39Zm-80,201v40.5h40v-40.5Zm80-201v39h40.5v-39Zm-80,201v40.5h40v-40.5ZM643,400v40.59H601v39h79.5V400Zm0,0v40.59H601v39h79.5V400Zm0,0v40.59H601v39h79.5V400Zm0,0v40.59H601v39h79.5V400Zm0,0v40.59H601v39h79.5V400Zm0,0v40.59H601v39h79.5V400Zm0,0v40.59H601v39h79.5V400Zm0,0v40.59H601v39h79.5V400Zm0,0v40.59H601v39h79.5V400Zm0,0v40.59H601v39h79.5V400Zm0,0v40.59H601v39h79.5V400Zm0,0v40.59H601v39h79.5V400Zm0,0v40.59H601v39h79.5V400Zm0,0v40.59H601v39h79.5V400Zm0,0v40.59H601v39h79.5V400Zm0,0v40.59H601v39h79.5V400Zm0,0v40.59H601v39h79.5V400Zm0,0v40.59H601v39h79.5V400Zm117.5,79.59v42h-40v40.5H800V479.59Zm-117.5-39H601v39h79.5V400H643ZM643,400v40.59H601v39h79.5V400Zm0,0v40.59H601v39h79.5V400Zm0,0v40.59H601v39h79.5V400Zm0,0v40.59H601v39h79.5V400Zm0,0v40.59H601v39h79.5V400Zm0,0v40.59H601v39h79.5V400Zm0,0v40.59H601v39h79.5V400Zm0,0v40.59H601v39h79.5V400Zm0,0v40.59H601v39h79.5V400Zm0,0v40.59H601v39h79.5V400Zm0,0v40.59H601v39h79.5V400Zm0,0v40.59H601v39h79.5V400Zm0,0v40.59H601v39h79.5V400Zm0,0v40.59H601v39h79.5V400Zm0,0v40.59H601v39h79.5V400Zm0,0v40.59H601v39h79.5V400Zm0,0v40.59H601v39h79.5V400Zm0,0v40.59H601v39h79.5V400ZM400,320.59v39h40.5v-39Zm-80,201v40.5h40v-40.5Zm-37.5-81v39H320v-39ZM400,320.59v39h40.5v-39Zm-80,201v40.5h40v-40.5Zm-37.5-81v39H320v-39Zm158-282v42h39v-42Zm-40.5-39v39h40.5v-39Zm-80,81v40.5h40V200.6Zm40-42v42h40v-42Zm40,162V241.1H360v79.49H320v39H440.5v-39ZM119.06,284.5v36.09h42V284.5ZM282.55,400V320.59H161.06v39h-42V400h81.5V359.59h40v81h42v39H320V400ZM320,521.58v40.5h40v-40.5Zm-37.5-81v39H320v-39Zm37.5,81v40.5h40v-40.5Zm40-81v39h40v-39Zm-77.5,0v39H320v-39Zm37.5,81v40.5h40v-40.5Zm40-81v39h40v-39Zm-199-199.49v43.4h79.49V241.1ZM282.55,440.59v39H320v-39Zm37.5,81v40.5h40v-40.5Zm40-81v39h40v-39Zm-40-120v39h40v-39Zm-159,0v39h-42V400h81.5V359.59h82v-39Zm0,0v39h-42V400h81.5V359.59h82v-39Zm0,0v39h-42V400h81.5V359.59h82v-39Zm0,0v39h-42V400h81.5V359.59h82v-39Zm0,0v39h-42V400h81.5V359.59h82v-39ZM0,200.6v83.9H39.56V200.6ZM0,400v79.59H80.06V400Zm39.56-79.41v39h40.5v-39Zm121.5,0v39h-42V400h81.5V359.59h82v-39Zm0,0v39h-42V400h81.5V359.59h82v-39Zm0,0v39h-42V400h81.5V359.59h82v-39Zm0,0v39h-42V400h81.5V359.59h82v-39Zm0,0v39h-42V400h81.5V359.59h82v-39Zm159,0v39h40v-39Zm-159,0v39h-42V400h81.5V359.59h82v-39Zm-42,282v39h42v-39Zm42-40.5v40.5h39.5v-40.5ZM282.55,440.59v39H320v-39Zm37.5,81v40.5h40v-40.5Zm40-81v39h40v-39ZM360,0V38.61h40V0Zm40,38.61v40.5h40.5V38.61ZM240.55,0V38.61h42V0Zm42,158.6v42H320v-42Zm37.5,42v40.5h40V200.6Zm40-42v42h40v-42Zm0,82.5V359.59h40V241.1Zm-241,361.48v39h42v-39Zm42-40.5v40.5h39.5v-40.5ZM282.55,440.59v39H320v-39Zm37.5,81v40.5h40v-40.5Zm40-81v39h40v-39Zm-77.5-282v42H320v-42Zm37.5,42v40.5h40V200.6Zm40-42v42h40v-42Zm0,82.5V359.59h40V241.1Zm-241,361.48v39h42v-39Zm42-40.5v40.5h39.5v-40.5ZM282.55,440.59v39H320v-39Zm37.5,81v40.5h40v-40.5Zm40-81v39h40v-39Zm-77.5-282v42H320v-42Zm37.5,42v40.5h40V200.6Zm40-42v42h40v-42Zm0,82.5V359.59h40V241.1ZM240.55,400v40.59H320V400ZM119.06,602.58v39h42v-39Zm42-40.5v40.5h39.5v-40.5ZM282.55,440.59v39H320v-39Zm37.5,81v40.5h40v-40.5Zm40-81v39h40v-39Zm80.45-81V400h81V359.59Zm-40.5-39v39h40.5v-39Zm-117.45-162v42H320v-42Zm37.5,42v40.5h40V200.6Zm40-42v42h40v-42Zm0,82.5V359.59h40V241.1ZM240.55,400v40.59H320V400ZM119.06,602.58v39h42v-39Zm42-40.5v40.5h39.5v-40.5ZM282.55,440.59v39H320v-39Zm37.5,81v40.5h40v-40.5Zm40-81v39h40v-39Zm80.45-81V400h81V359.59Zm-40.5-39v39h40.5v-39Zm-117.45-162v42H320v-42Zm37.5,42v40.5h40V200.6Zm40-42v42h40v-42Zm0,82.5v79.49H320v39h80V241.1ZM240.55,400v40.59H320V400ZM119.06,602.58v39h42v-39Zm42-40.5v40.5h39.5v-40.5ZM282.55,440.59v39H320v-39Zm37.5,81v40.5h40v-40.5Zm40-81v39h40v-39Zm80.45-81V400h81V359.59Zm-40.5-39v39h40.5v-39Zm-117.45-162v42H320v-42Zm37.5,42v40.5h40V200.6Zm40-42v42h40v-42Zm0,82.5v79.49H320v39h80V241.1ZM240.55,400v40.59H320V400ZM119.06,602.58v39h42v-39Zm42-40.5v40.5h39.5v-40.5ZM282.55,440.59v39H320v-39Zm37.5,81v40.5h40v-40.5Zm40-81v39h40v-39Zm80.45-81V400h81V359.59Zm-40.5-39v39h40.5v-39Zm-80,201v40.5h40v-40.5Zm40-81v39h40v-39Zm-77.5-282v42H320v-42Zm37.5,42v40.5h40V200.6Zm40-42v42h40v-42Zm0,82.5v79.49H320v39h80V241.1ZM240.55,400v40.59h42v39H320V400ZM119.06,602.58v39h42v-39Zm42-40.5v40.5h39.5v-40.5ZM440.5,359.59V400h81V359.59Zm-40.5-39v39h40.5v-39Zm-80,201v40.5h40v-40.5Zm40-81v39h40v-39Zm-77.5-282v42H320v-42Zm37.5,42v40.5h40V200.6Zm40-42v42h40v-42Zm0,82.5v79.49H320v39h80V241.1ZM240.55,400v40.59h42v39H320V400ZM119.06,602.58v39h42v-39Zm42-40.5v40.5h39.5v-40.5ZM440.5,359.59V400h81V359.59Zm-40.5-39v39h40.5v-39Zm-80,201v40.5h40v-40.5Zm40-81v39h40v-39Zm-77.5-282v42H320v-42Zm37.5,42v40.5h40V200.6Zm40-42v42h40v-42Zm0,82.5v79.49H320v39h80V241.1ZM240.55,400v40.59h42v39H320V400ZM119.06,602.58v39h42v-39Zm42-40.5v40.5h39.5v-40.5ZM440.5,359.59V400h81V359.59Zm-40.5-39v39h40.5v-39Zm-80,201v40.5h40v-40.5Zm40-81v39h40v-39Zm-77.5-282v42H320v-42Zm37.5,42v40.5h40V200.6Zm40-42v42h40v-42Zm0,82.5v79.49H320v39h80V241.1ZM240.55,400v40.59h42v39H320V400ZM119.06,602.58v39h42v-39Zm42-40.5v40.5h39.5v-40.5Zm159-40.5v40.5h40v-40.5Zm40-81v39h40v-39Zm80.45-81V400h81V359.59Zm-40.5-39v39h40.5v-39Zm-117.45-162v42H320v-42Zm37.5,42v40.5h40V200.6Zm40-42v42h40v-42Zm0,82.5v79.49H320v39h80V241.1ZM240.55,400v40.59h42v39H320V400ZM119.06,602.58v39h42v-39Zm42-40.5v40.5h39.5v-40.5Zm159-40.5v40.5h40v-40.5Zm40-81v39h40v-39Zm80.45-81V400h81V359.59Zm-40.5-39v39h40.5v-39Zm-117.45-162v42H320v-42Zm37.5,42v40.5h40V200.6Zm40-42v42h40v-42Zm0,82.5v79.49H320v39h80V241.1ZM240.55,400v40.59h42v39H320V400ZM119.06,602.58v39h42v-39Zm42-40.5v40.5h39.5v-40.5Zm159-40.5v40.5h40v-40.5Zm40-81v39h40v-39Zm80.45-81V400h81V359.59Zm-40.5-39v39h40.5v-39Zm-117.45-162v42H320v-42Zm37.5,42v40.5h40V200.6Zm40-42v42h40v-42Zm0,82.5v79.49H320v39h80V241.1ZM240.55,400v40.59h42v39H320V400ZM119.06,602.58v39h42v-39Zm42-40.5v40.5h39.5v-40.5ZM440.5,359.59V400h81V359.59Zm-40.5-39v39h40.5v-39Zm-80,201v40.5h40v-40.5Zm-37.5-363v42H320v-42Zm37.5,42v40.5h40V200.6Zm40-42v42h40v-42Zm0,82.5v79.49H320v39h80V241.1Zm-241,361.48v39h42v-39Zm42-40.5v40.5h39.5v-40.5ZM440.5,359.59V400h81V359.59Zm-40.5-39v39h40.5v-39Zm-80,201v40.5h40v-40.5Zm-37.5-363v42H320v-42Zm37.5,42v40.5h40V200.6Zm40-42v42h40v-42Zm0,82.5v79.49H320v39h80V241.1Zm-241,361.48v39h42v-39Zm42-40.5v40.5h39.5v-40.5ZM440.5,359.59V400h81V359.59Zm-40.5-39v39h40.5v-39Zm-80,201v40.5h40v-40.5Zm-37.5-363v42H320v-42Zm37.5,42v40.5h40V200.6Zm40-42v42h40v-42Zm0,82.5v79.49H320v39h80V241.1Zm-241,361.48v39h42v-39Zm42-40.5v40.5h39.5v-40.5ZM440.5,359.59V400h81V359.59Zm-40.5-39v39h40.5v-39Zm-80,0v39h40v-39Zm-37.5-162v42H320v-42Zm37.5,42v40.5h40V200.6Zm-201,402v39h42v-39Zm42-40.5v40.5h39.5v-40.5ZM440.5,359.59V400h81V359.59Zm-40.5-39v39h40.5v-39Zm-80,0v39h40v-39Zm-37.5-162v42H320v-42Zm37.5,42v40.5h40V200.6Zm-201,402v39h42v-39Zm42-40.5v40.5h39.5v-40.5ZM440.5,359.59V400h81V359.59Zm-40.5-39v39h40.5v-39Zm-80,0v39h40v-39Zm-37.5-162v42H320v-42Zm37.5,42v40.5h40V200.6Zm120.45,159V400h81V359.59Zm-40.5-39v39h40.5v-39Zm-80,0v39h40v-39Zm-37.5-162v42H320v-42Zm37.5,42v40.5h40V200.6Zm120.45,159V400h81V359.59Zm-40.5-39v39h40.5v-39Zm-80,0v39h40v-39Zm-37.5-162v42H320v-42Zm37.5,42v40.5h40V200.6Zm120.45,159V400h81V359.59Zm-40.5-39v39h40.5v-39Zm-80,0v39h40v-39Zm-37.5-162v42H320v-42Zm37.5,42v40.5h40V200.6Zm0,120v39h40v-39Zm-37.5-162v42H320v-42Zm37.5,42v40.5h40V200.6Zm0,120v39h40v-39Zm-37.5-162v42H320v-42Zm37.5,42v40.5h40V200.6Zm0,120v39h40v-39Zm-37.5-162v42H320v-42Zm37.5,42v40.5h40V200.6Z"/><rect class="cls-1" x="161.06" y="760.07" width="39.5" height="39.93"/><rect class="cls-1" x="560.99" y="680.58" width="40" height="40.49"/><rect class="cls-1" x="642.99" y="158.6" width="37.5" height="42"/><polygon class="cls-1" points="200.56 158.6 200.56 200.6 161.06 200.6 161.06 284.5 119.06 284.5 119.06 158.6 200.56 158.6"/><rect class="cls-1" x="119.06" y="320.59" width="42" height="39"/><rect class="cls-1" x="282.55" y="79.11" width="37.5" height="40.49"/><rect class="cls-1" x="680.49" y="641.58" width="39.99" height="39"/><rect class="cls-1" x="479.5" y="562.08" width="41.99" height="79.5"/><rect class="cls-1" x="282.55" y="320.59" width="37.5" height="79.41"/><rect class="cls-1" x="119.06" y="440.59" width="42" height="80.99"/><rect class="cls-1" x="400" y="479.59" width="40.5" height="82.49"/><polygon class="cls-1" points="642.99 200.6 642.99 284.5 600.99 284.5 600.99 241.1 521.49 241.1 521.49 158.6 440.5 158.6 440.5 119.6 600.99 119.6 600.99 158.6 560.99 158.6 560.99 200.6 642.99 200.6"/><polygon class="cls-1" points="161.06 562.08 161.06 602.58 119.06 602.58 119.06 641.58 80.06 641.58 80.06 602.58 39.56 602.58 39.56 641.58 0 641.58 0 521.58 39.56 521.58 39.56 562.08 161.06 562.08"/><polygon class="cls-1" points="400 641.58 400 680.58 320.05 680.58 320.05 602.58 360.05 602.58 360.05 641.58 400 641.58"/><polygon class="cls-1" points="800 119.6 800 158.6 680.49 158.6 680.49 119.6 720.48 119.6 720.48 79.11 760.49 79.11 760.49 119.6 800 119.6"/><rect class="cls-1" y="721.07" width="39.56" height="78.93"/><polygon class="cls-1" points="80.06 79.11 80.06 158.6 0 158.6 0 119.6 39.56 119.6 39.56 79.11 80.06 79.11"/><polygon class="cls-1" points="320.05 521.58 320.05 562.08 240.55 562.08 240.55 479.59 200.56 479.59 200.56 440.59 282.55 440.59 282.55 521.58 320.05 521.58"/><polygon class="cls-1" points="600.99 760.07 600.99 800 479.5 800 479.5 721.07 560.99 721.07 560.99 760.07 600.99 760.07"/><polygon class="cls-3" points="161.06 119.6 161.06 158.6 80.06 158.6 80.06 38.61 119.06 38.61 119.06 119.6 161.06 119.6"/><polygon class="cls-3" points="800 602.58 800 641.58 680.49 641.58 680.49 562.08 720.48 562.08 720.48 602.58 800 602.58"/><polygon class="cls-3" points="360.05 0 360.05 38.61 320.05 38.61 320.05 79.11 282.55 79.11 282.55 0 360.05 0"/><rect class="cls-3" x="600.99" y="38.61" width="42" height="119.99"/><rect class="cls-3" x="642.99" y="320.59" width="77.49" height="39"/><polygon class="cls-1" points="479.5 0 479.5 79.11 440.5 79.11 440.5 38.61 400 38.61 400 0 479.5 0"/><polygon class="cls-4" points="440.5 721.07 440.5 800 400 800 400 760.07 360.05 760.07 360.05 680.58 400 680.58 400 721.07 440.5 721.07"/><polygon class="cls-5" points="800 641.58 800 680.58 760.49 680.58 760.49 760.07 720.48 760.07 720.48 641.58 800 641.58"/><rect class="cls-1" x="720.48" y="562.08" width="79.52" height="40.5"/><rect class="cls-1" width="39.56" height="79.11"/><rect class="cls-3" x="680.49" y="158.6" width="119.51" height="42"/><polygon class="cls-1" points="800 400 800 479.59 720.48 479.59 720.48 440.59 760.49 440.59 760.49 400 800 400"/><polygon class="cls-3" points="800 320.59 800 359.59 760.49 359.59 760.49 440.59 720.48 440.59 720.48 320.59 800 320.59"/><rect class="cls-3" x="161.06" y="200.6" width="79.49" height="40.5"/><rect class="cls-4" x="161.06" y="38.61" width="39.5" height="80.99"/><polygon class="cls-1" points="282.55 721.07 282.55 800 240.55 800 240.55 760.07 200.56 760.07 200.56 680.58 240.55 680.58 240.55 721.07 282.55 721.07"/><rect class="cls-5" x="760.49" y="721.07" width="39.51" height="78.93"/><rect class="cls-6" x="760.49" width="39.51" height="79.11"/><polygon class="cls-4" points="119.06 158.6 119.06 241.1 80.06 241.1 80.06 200.6 0 200.6 0 158.6 119.06 158.6"/><polygon class="cls-1" points="680.49 0 680.49 119.6 642.99 119.6 642.99 38.61 521.49 38.61 521.49 0 680.49 0"/><polygon class="cls-7" points="161.06 721.07 161.06 760.07 39.56 760.07 39.56 680.58 80.06 680.58 80.06 721.07 161.06 721.07"/><rect class="cls-1" x="39.56" y="200.6" width="40.5" height="83.9"/><polygon class="cls-3" points="119.06 284.5 119.06 400 80.06 400 80.06 320.59 39.56 320.59 39.56 284.5 119.06 284.5"/><polygon class="cls-3" points="80.06 479.59 80.06 562.08 39.56 562.08 39.56 521.58 0 521.58 0 479.59 80.06 479.59"/><rect class="cls-5" x="80.06" y="400" width="39" height="121.58"/><rect class="cls-1" x="161.06" y="284.5" width="79.49" height="36.09"/><polygon class="cls-3" points="240.55 479.59 240.55 562.08 200.56 562.08 200.56 521.58 161.06 521.58 161.06 440.59 200.56 440.59 200.56 479.59 240.55 479.59"/><rect class="cls-6" x="320.05" y="400" width="40" height="79.59"/><polygon class="cls-3" points="521.49 38.61 521.49 119.6 400 119.6 400 79.11 479.5 79.11 479.5 38.61 521.49 38.61"/><rect class="cls-3" x="479.5" y="158.6" width="41.99" height="82.5"/><rect class="cls-3" x="600.99" y="158.6" width="42" height="42"/><rect class="cls-1" x="600.99" y="400" width="42" height="40.59"/><polygon class="cls-3" points="479.5 200.6 479.5 359.59 440.5 359.59 440.5 241.1 400 241.1 400 200.6 479.5 200.6"/><rect class="cls-1" x="521.49" y="400" width="39.5" height="40.59"/><polygon class="cls-1" points="521.49 400 521.49 440.59 479.5 440.59 479.5 479.59 440.5 479.59 440.5 400 521.49 400"/><polygon class="cls-5" points="642.99 359.59 642.99 400 521.49 400 521.49 320.59 560.99 320.59 560.99 359.59 642.99 359.59"/><rect class="cls-3" x="560.99" y="400" width="40" height="121.58"/><polygon class="cls-3" points="800 241.1 800 284.5 720.48 284.5 720.48 200.6 760.49 200.6 760.49 241.1 800 241.1"/><polygon class="cls-1" points="560.99 284.5 560.99 320.59 521.49 320.59 521.49 359.59 479.5 359.59 479.5 284.5 560.99 284.5"/><polygon class="cls-1" points="760.49 284.5 760.49 320.59 680.49 320.59 680.49 241.1 720.48 241.1 720.48 284.5 760.49 284.5"/><polygon class="cls-3" points="760.49 479.59 760.49 521.58 680.49 521.58 680.49 400 720.48 400 720.48 479.59 760.49 479.59"/><polygon class="cls-1" points="720.48 521.58 720.48 562.08 642.99 562.08 642.99 479.59 680.49 479.59 680.49 521.58 720.48 521.58"/><rect class="cls-3" x="320.05" y="38.61" width="40" height="161.99"/><rect class="cls-1" x="360.05" y="38.61" width="39.95" height="40.5"/><rect class="cls-4" x="240.55" y="38.61" width="42" height="80.99"/><polygon class="cls-1" points="282.55 119.6 282.55 158.6 200.56 158.6 200.56 79.11 240.55 79.11 240.55 119.6 282.55 119.6"/><rect class="cls-1" x="360.05" y="79.11" width="39.95" height="79.49"/><rect class="cls-3" x="479.5" y="241.1" width="121.49" height="43.4"/><rect class="cls-1" x="400" y="158.6" width="40.5" height="42"/><rect class="cls-1" x="360.05" y="200.6" width="39.95" height="40.5"/><polygon class="cls-3" points="282.55 241.1 282.55 284.5 320.05 284.5 320.05 320.59 240.55 320.59 240.55 200.6 320.05 200.6 320.05 241.1 282.55 241.1"/><rect class="cls-1" x="400" y="241.1" width="40.5" height="79.49"/><polygon class="cls-1" points="360.05 241.1 360.05 320.59 320.05 320.59 320.05 284.5 282.55 284.5 282.55 241.1 360.05 241.1"/><polygon class="cls-1" points="80.06 359.59 80.06 400 0 400 0 284.5 39.56 284.5 39.56 359.59 80.06 359.59"/><polygon class="cls-7" points="440.5 359.59 440.5 400 400 400 400 440.59 360.05 440.59 360.05 400 320.05 400 320.05 359.59 440.5 359.59"/><polygon class="cls-4" points="240.55 359.59 240.55 440.59 119.06 440.59 119.06 400 200.56 400 200.56 359.59 240.55 359.59"/><rect class="cls-3" x="479.5" y="440.59" width="81.49" height="39"/><rect class="cls-5" x="240.55" y="562.08" width="119.5" height="40.5"/><polygon class="cls-1" points="680.49 602.58 680.49 641.58 600.99 641.58 600.99 562.08 642.99 562.08 642.99 602.58 680.49 602.58"/><polygon class="cls-3" points="642.99 641.58 642.99 680.58 560.99 680.58 560.99 602.58 600.99 602.58 600.99 641.58 642.99 641.58"/><polygon class="cls-1" points="560.99 479.59 560.99 562.08 521.49 562.08 521.49 521.58 479.5 521.58 479.5 479.59 560.99 479.59"/><polygon class="cls-7" points="642.99 680.58 642.99 800 600.99 800 600.99 760.07 560.99 760.07 560.99 721.07 600.99 721.07 600.99 680.58 642.99 680.58"/><rect class="cls-1" x="119.06" y="641.58" width="81.5" height="39"/><rect class="cls-5" x="282.55" y="479.59" width="117.45" height="41.99"/><rect class="cls-5" x="440.5" y="479.59" width="39" height="122.99"/><rect class="cls-4" x="360.05" y="521.58" width="39.95" height="120"/><rect class="cls-1" x="282.55" y="680.58" width="37.5" height="40.49"/><polygon class="cls-5" points="521.49 641.58 521.49 721.07 479.5 721.07 479.5 680.58 440.5 680.58 440.5 641.58 521.49 641.58"/><polygon class="cls-1" points="760.49 760.07 760.49 800 680.49 800 680.49 721.07 720.48 721.07 720.48 760.07 760.49 760.07"/></svg>